<svg width="19" height="19" viewBox="0 0 19 19" fill="none" xmlns="http://www.w3.org/2000/svg">
<g clip-path="url(#clip0)">
<path d="M1.58333 12.0333H11.2071L9.70488 13.3918C9.37457 13.6931 9.1864 14.1196 9.1865 14.5667V16.4667C9.18888 17.0913 9.55762 17.6564 10.1284 17.9101C10.6992 18.1638 11.3657 18.0589 11.831 17.6421L18.4949 11.6118C18.817 11.3113 18.9999 10.8905 19 10.45C19 8.18329 19 8.60288 18.9959 8.52973C18.9988 8.08853 18.8111 7.66754 18.481 7.37484L11.831 1.35818C11.3771 0.946515 10.7257 0.835274 10.1609 1.07296C9.59608 1.31064 9.22025 1.85416 9.19727 2.46651C9.17795 2.55359 9.18365 2.26923 9.18365 4.43618C9.18746 4.8823 9.37663 5.30674 9.70583 5.60784L11.2081 6.96666H1.58333C0.709316 6.96771 0.00104694 7.67597 0 8.54999V10.45C0.00104694 11.324 0.709316 12.0323 1.58333 12.0333ZM1.58333 11.4C1.05866 11.4 0.633333 10.9747 0.633333 10.45V9.80874C0.905898 10.0181 1.23966 10.1321 1.58333 10.1333H13.3076L11.9067 11.4H1.58333ZM9.81983 16.4667V15.8333C10.2743 16.1768 10.8793 16.2465 11.4 16.0154V17.1773C11.1203 17.4252 10.7211 17.4861 10.3802 17.3328C10.0393 17.1795 9.81995 16.8405 9.81983 16.4667ZM18.0652 11.1467C17.9585 11.2445 12.2572 16.4033 12.0333 16.605V15.56L18.3667 9.82837C18.3667 10.3981 18.4385 10.804 18.0652 11.1467ZM10.1308 5.13949C9.93275 4.95781 9.81898 4.70208 9.81667 4.43333V3.80918L13.3076 6.96666H12.1521L10.1308 5.13949ZM1.58333 7.59999H14.1297C14.2606 7.59993 14.3779 7.51934 14.425 7.39721C14.4721 7.27507 14.4391 7.13657 14.3421 7.04868L10.1333 3.24013C9.74333 2.88816 9.71249 2.28667 10.0645 1.89667C10.4164 1.50666 11.0179 1.47583 11.4079 1.82779L18.0623 7.85016C18.2561 8.033 18.3654 8.28798 18.3642 8.55437C18.363 8.82077 18.2514 9.07475 18.056 9.25584L11.406 15.2725C11.2196 15.4423 10.9729 15.5303 10.7211 15.5167C10.3382 15.4953 10.0055 15.2465 9.87657 14.8854C9.74767 14.5243 9.84772 14.1211 10.1305 13.8621L14.3421 10.0526C14.4401 9.96486 14.4737 9.82573 14.4265 9.703C14.3793 9.58027 14.2612 9.49947 14.1297 9.49999H1.58333C1.05866 9.49999 0.633333 9.07466 0.633333 8.54999C0.633333 8.02532 1.05866 7.59999 1.58333 7.59999Z" fill="white"/>
</g>
<defs>
<clipPath id="clip0">
<rect width="19" height="19" fill="white"/>
</clipPath>
</defs>
</svg>
